<?xml version="1.0" encoding="UTF-8" standalone="no"?>
<svg
   xmlns:dc="http://purl.org/dc/elements/1.1/"
   xmlns:cc="http://creativecommons.org/ns#"
   xmlns:rdf="http://www.w3.org/1999/02/22-rdf-syntax-ns#"
   xmlns:svg="http://www.w3.org/2000/svg"
   xmlns="http://www.w3.org/2000/svg"
   xmlns:sodipodi="http://sodipodi.sourceforge.net/DTD/sodipodi-0.dtd"
   xmlns:inkscape="http://www.inkscape.org/namespaces/inkscape"
   width="32"
   height="32"
   viewBox="0 0 106.66674 106.66674"
   version="1.2"
   id="svg3193"
   inkscape:version="0.48.2 r9819"
   sodipodi:docname="icon.svg"
   inkscape:export-filename="C:\Documents and Settings\delplanquea\.qgis\python\plugins\MapColoring\icon\icon.png"
   inkscape:export-xdpi="16.271198"
   inkscape:export-ydpi="16.271198">
  <metadata
     id="metadata3399">
    <rdf:RDF>
      <cc:Work
         rdf:about="">
        <dc:format>image/svg+xml</dc:format>
        <dc:type
           rdf:resource="http://purl.org/dc/dcmitype/StillImage" />
      </cc:Work>
    </rdf:RDF>
  </metadata>
  <sodipodi:namedview
     pagecolor="#ffffff"
     bordercolor="#666666"
     borderopacity="1"
     objecttolerance="10"
     gridtolerance="10"
     guidetolerance="10"
     inkscape:pageopacity="0"
     inkscape:pageshadow="2"
     inkscape:window-width="1280"
     inkscape:window-height="968"
     id="namedview3397"
     showgrid="true"
     inkscape:zoom="22.627417"
     inkscape:cx="10.147682"
     inkscape:cy="15.979086"
     inkscape:window-x="-4"
     inkscape:window-y="-4"
     inkscape:window-maximized="1"
     inkscape:current-layer="svg3193">
    <inkscape:grid
       type="xygrid"
       id="grid4653"
       empspacing="4"
       visible="true"
       enabled="true"
       snapvisiblegridlinesonly="true"
       spacingx="0.5px"
       spacingy="0.5px" />
  </sodipodi:namedview>
  <desc
     id="desc3195">Generated with Qt</desc>
  <defs
     id="defs3197" />
  <path
     style="fill:#0090ed;fill-opacity:1;stroke-width:0.25000000000000000;stroke-linecap:round;stroke-miterlimit:4;stroke-dasharray:none"
     d="M 60.273098,70.614025 C 58.234423,69.821951 56.655659,69.548027 54.11613,69.545774 l -2.179488,-0.0019 -1.429704,-1.03404 C 48.58,67.116129 47.293225,66.494542 45.793624,66.232998 c -1.974944,-0.34445 -2.406568,-0.808697 -2.653891,-2.854465 -0.169967,-1.405858 -0.558431,-1.985048 -1.442655,-2.150928 -0.275633,-0.0517 -0.501147,-0.116067 -0.501147,-0.143 0,-0.027 0.1083,-0.305667 0.240701,-0.619411 0.163066,-0.386466 0.2763,-1.283164 0.351123,-2.780615 0.121667,-2.435345 0.279234,-3.004888 1.008777,-3.646669 0.527711,-0.46423 0.546384,-0.6066 0.235901,-1.798588 -0.713504,-2.739332 -2.781509,-5.161297 -5.421037,-6.348897 -1.049441,-0.472177 -1.124325,-0.589474 -1.127505,-1.766152 -0.0031,-1.132764 0.510734,-1.972984 2.648162,-4.330596 1.185964,-1.308134 2.069088,-2.425705 2.316595,-2.931589 0.44819,-0.916067 0.606894,-2.278138 0.36677,-3.147792 -0.124433,-0.450667 -0.07897,-0.738258 0.290134,-1.834724 0.363347,-1.07935 0.42963,-1.488012 0.390124,-2.405139 l -0.0476,-1.104855 0.515597,-0.25113 c 0.581703,-0.283324 1.878041,-0.640075 2.827065,-0.778002 l 0.634814,-0.09226 0.810227,1.361641 c 2.172378,3.650829 3.856002,5.136713 5.820297,5.136713 0.503477,0 0.821871,-0.133267 1.613395,-0.675219 1.15873,-0.793399 1.821227,-1.092549 2.419568,-1.092549 0.6159,0 0.900664,0.138453 0.900664,0.43791 0,0.14249 0.2321,0.723032 0.515797,1.290091 1.249781,2.498165 3.713656,3.708052 6.678528,3.279495 2.447085,-0.353713 2.474071,-0.353326 3.153228,0.04523 1.028651,0.603687 1.970895,1.524628 2.746799,2.684702 l 0.731074,1.093047 -0.0747,1.145858 c -0.04107,0.63022 -0.170667,1.941351 -0.287967,2.913622 -0.1173,0.972274 -0.254334,2.837478 -0.304567,4.144899 l -0.0913,2.377128 -0.604074,0.180467 c -0.89461,0.267234 -1.651071,0.685377 -2.299111,1.270844 -0.873814,0.789437 -1.843318,1.089604 -4.046873,1.252954 -1.055131,0.0782 -2.102965,0.214301 -2.328525,0.302434 -1.571594,0.614027 -1.730581,3.464809 -0.495537,8.885533 l 0.335637,1.473141 0.8006,0.405507 c 1.039288,0.526397 1.465818,1.15317 1.570518,2.307808 0.142634,1.573191 -0.552864,3.023365 -1.674878,3.492172 -0.593147,0.247834 -0.442943,0.2734 -2.041314,-0.347597 l 0,0 z"
     id="path4697"
     inkscape:connector-curvature="0" />
  <g
     id="g4783"
     style="fill:#29d800;fill-opacity:1">
    <path
       inkscape:connector-curvature="0"
       id="path4695"
       d="m 52.391796,32.68977 c -0.728314,-0.206667 -1.888188,-1.12051 -2.605335,-2.052694 -0.336117,-0.436901 -1.101301,-1.58986 -1.700408,-2.562133 l -1.089288,-1.767768 -0.88084,0.03267 c -1.011368,0.03751 -3.278993,0.653321 -4.03099,1.094686 l -0.510483,0.29961 -0.261001,-0.322313 c -0.319423,-0.394478 -0.504943,-1.06335 -0.85522,-3.08341 -0.538897,-3.107848 -0.668844,-3.44236 -1.918161,-4.93769 -0.811524,-0.97133 -0.871338,-1.202061 -0.433461,-1.672068 0.458071,-0.491681 0.920151,-0.684422 3.594406,-1.499288 2.923485,-0.890807 3.521019,-1.153286 4.260433,-1.871477 0.981831,-0.953649 1.045547,-1.229226 1.049697,-4.5398863 0.0043,-3.5582021 0.04183,-3.6637875 1.787232,-5.0476751 1.151117,-0.9127 1.722437,-1.1652255 2.254314,-0.9964137 0.1584,0.05027 0.900018,0.7552208 1.648068,1.5665594 1.353061,1.467527 1.915458,1.8995343 2.472869,1.8995343 0.160666,0 0.617533,0.3148835 1.015254,0.6997415 0.39772,0.3848579 1.446224,1.1291654 2.330011,1.6540171 3.470789,2.0611808 4.3322,2.9790168 4.3322,4.6159778 0,0.354583 -0.2933,1.765403 -0.651797,3.135154 -0.928411,3.547377 -1.150948,4.111529 -2.043042,5.179296 -0.36599,0.438062 -0.552607,0.856312 -0.684744,1.534663 -0.0999,0.51287 -0.439433,1.98178 -0.754513,3.264248 -0.315067,1.282467 -0.614031,2.642017 -0.664334,3.021224 l -0.09147,0.689467 -0.930141,0.02583 c -1.023984,0.02847 -1.590644,0.262387 -2.961232,1.222486 -0.907987,0.63605 -0.908177,0.636095 -1.678034,0.417641 l 0,0 z"
       style="fill:#29d800;fill-opacity:1;stroke-width:0.25000000000000000;stroke-linecap:round;stroke-miterlimit:4;stroke-dasharray:none" />
    <path
       inkscape:connector-curvature="0"
       id="path4701"
       d="M 77.287866,87.949543 C 77.004299,87.89801 76.308229,87.62041 75.741068,87.332656 73.782884,86.339179 70.506151,85.401538 67.103019,84.860868 l -1.125037,-0.178734 0.49192,-0.995364 c 1.326884,-2.684842 0.89,-5.136443 -1.368648,-7.680245 -0.919787,-1.035911 -2.346981,-3.203342 -2.492651,-3.785509 -0.04187,-0.167367 0.130233,-0.35501 0.536227,-0.584581 2.095401,-1.184854 2.562041,-4.74899 0.863084,-6.592141 -0.325167,-0.35277 -0.802678,-0.711187 -1.061121,-0.79648 -0.462917,-0.152767 -0.475887,-0.182967 -0.873571,-2.033088 -0.769127,-3.578193 -0.844417,-5.511021 -0.252567,-6.484218 0.295567,-0.486024 0.413924,-0.514564 2.945532,-0.710241 2.156159,-0.166666 3.001452,-0.47055 4.173457,-1.500394 0.310333,-0.2727 0.840673,-0.614164 1.17851,-0.758807 1.202064,-0.51466 1.194964,-0.515414 1.630011,0.172833 0.850674,1.345808 2.667286,2.049625 4.04796,1.568318 0.424237,-0.1479 0.495114,-0.127533 0.769244,0.220967 0.40941,0.520484 0.868037,0.48491 1.631771,-0.126567 1.143321,-0.915394 1.862634,-1.296061 2.260405,-1.196227 0.48786,0.122433 1.619621,1.585997 1.842768,2.383001 0.139866,0.499561 0.139166,0.955928 -0.0033,2.118688 -0.265234,2.165095 -0.04057,2.927502 1.319441,4.477987 0.99175,1.130641 0.967124,1.406427 -0.205334,2.299485 -1.659771,1.264244 -2.145805,1.815481 -2.145805,2.433658 0,0.676237 0.414714,1.382318 1.021778,1.739654 0.813077,0.478601 0.941204,0.939268 1.032124,3.710906 0.07477,2.279109 0.1127,2.553462 0.42178,3.050546 0.484117,0.778584 1.095671,1.245014 2.010468,1.533377 0.754187,0.237734 0.839361,0.237134 1.630268,-0.01167 0.76855,-0.241734 0.853334,-0.243667 1.072664,-0.02433 0.2076,0.207601 0.2144,0.328067 0.05297,0.938694 -0.274401,1.037978 -1.041475,2.218619 -1.768158,2.721439 -1.100708,0.761627 -1.631871,1.297034 -3.427013,3.454382 -1.699038,2.041855 -2.843182,3.093832 -3.740986,3.439616 -0.673503,0.2594 -1.709104,0.38806 -2.283364,0.283667 l 0,-4e-6 z"
       style="fill:#29d800;fill-opacity:1;stroke-width:0.25000000000000000;stroke-linecap:round;stroke-miterlimit:4;stroke-dasharray:none" />
  </g>
  <g
     id="g4779"
     style="fill:#d83100;fill-opacity:1">
    <path
       inkscape:connector-curvature="0"
       id="path4699"
       d="m 73.552923,53.28877 c -0.312233,-0.189001 -0.759697,-0.629534 -0.99437,-0.978954 -0.415067,-0.618021 -0.426591,-0.685818 -0.423477,-2.491395 0.0018,-1.020848 0.1329,-3.115619 0.291433,-4.655054 0.427534,-4.151729 0.410781,-4.524403 -0.253867,-5.647927 -0.771367,-1.303924 -2.327065,-2.837992 -3.444029,-3.396145 -1.023064,-0.511231 -1.583587,-0.558891 -2.783921,-0.236701 -1.140958,0.306234 -2.447689,0.274367 -3.621976,-0.08833 -0.845691,-0.2612 -1.142094,-0.45014 -1.906662,-1.215341 -0.668163,-0.668714 -0.992257,-1.137584 -1.237247,-1.789935 -0.424674,-1.130791 -0.371277,-1.637265 0.585204,-5.550896 0.401533,-1.642962 0.730063,-3.095473 0.730063,-3.227803 0,-0.13233 0.207767,-0.498308 0.461724,-0.813284 0.779011,-0.966215 1.414108,-2.524718 2.071802,-5.084124 l 0.629333,-2.449044 0.726894,-0.01637 c 0.601771,-0.01357 1.833911,-0.281244 3.218149,-0.69915 0.182633,-0.05514 0.2578,0.0041 0.2578,0.203194 0,0.580328 0.906707,2.087149 1.682635,2.796303 1.560581,1.426284 4.81535,2.687772 6.934728,2.687772 0.324233,0 0.589327,0.135457 0.893657,0.456652 1.352801,1.427767 3.246645,2.187517 7.464485,2.994511 2.212432,0.423302 3.943083,0.908682 3.943083,1.105882 0,0.06918 -0.498321,1.43331 -1.107378,3.031394 -1.807124,4.741651 -2.183008,6.753184 -1.773588,9.491366 0.235201,1.572935 0.165834,2.086265 -0.316066,2.339702 -0.145667,0.0766 -0.795184,0.283733 -1.443365,0.460284 -1.328047,0.36173 -1.793994,0.70982 -1.931534,1.442964 -0.05203,0.2774 -0.414564,1.093201 -0.805608,1.812891 -0.391043,0.719687 -1.216917,2.321708 -1.835278,3.560043 -1.813387,3.631505 -3.157422,5.73714 -3.902779,6.114297 -0.57849,0.292734 -1.477634,0.2259 -2.109845,-0.1568 z"
       style="fill:#d83100;fill-opacity:1;stroke-width:0.25000000000000000;stroke-linecap:round;stroke-miterlimit:4;stroke-dasharray:none" />
    <path
       inkscape:connector-curvature="0"
       id="path4703"
       d="M 51.184785,95.971872 C 49.18025,95.541335 47.194475,94.541774 45.566611,93.14391 44.35294,92.101719 43.585093,91.725066 41.722838,91.258432 l -1.563641,-0.391814 -0.868767,0.389881 c -2.801202,1.257107 -5.610857,0.630647 -10.709022,-2.387752 -1.297501,-0.768194 -1.92756,-1.057971 -2.300329,-1.057971 -0.628444,0 -1.199127,-0.423477 -1.581967,-1.173907 -0.320973,-0.629164 -1.056211,-1.302304 -1.647618,-1.508471 L 22.65443,84.989964 23.288261,84.00651 c 0.859375,-1.333414 1.273944,-2.191368 1.898872,-3.929736 1.21806,-3.388292 1.704013,-6.560714 1.955766,-12.767718 l 0.08765,-2.161112 0.445819,-0.184666 c 0.355097,-0.147101 0.583978,-0.147701 1.124751,-0.0031 0.787903,0.210733 3.875159,1.875081 4.82973,2.603722 0.974377,0.743757 1.651538,0.905684 2.473985,0.591587 0.861757,-0.329101 1.303854,-0.905781 2.436692,-3.178426 1.28846,-2.584858 1.467337,-2.799522 2.330441,-2.796712 0.380737,0.0012 0.776321,0.05563 0.879081,0.120834 0.239533,0.152033 0.476077,0.976127 0.476077,1.658544 0,1.768771 1.348827,3.069322 3.388222,3.266956 0.445627,0.0432 1.174831,0.240267 1.620454,0.437977 0.697788,0.309567 2.680299,1.603377 3.813203,2.488518 0.287167,0.224367 0.609997,0.2745 1.767768,0.2746 3.088722,2.67e-4 5.22418,0.357654 7.520622,1.258631 0.96593,0.37897 0.9775,0.39031 1.694254,1.660638 0.969018,1.717418 1.415264,2.358795 2.455862,3.529736 1.995798,2.245788 2.264371,4.430273 0.83648,6.803668 l -0.484163,0.804763 -1.104854,0.171734 c -3.522099,0.547484 -6.764005,2.534848 -7.882119,4.831917 -0.331667,0.68136 -0.436317,1.13166 -0.486867,2.094734 -0.06227,1.186331 -0.04837,1.251781 0.421597,1.984138 0.342004,0.532971 0.445607,0.819708 0.349694,0.967851 -0.07497,0.115767 -0.657204,0.43611 -1.293878,0.711847 -0.636674,0.275734 -1.271664,0.604577 -1.411084,0.730754 -0.306334,0.277233 -0.935318,0.275433 -2.247535,-0.0063 l 0,0 z"
       style="fill:#d83100;fill-opacity:1;stroke-width:0.25000000000000000;stroke-linecap:round;stroke-miterlimit:4;stroke-dasharray:none" />
  </g>
  <path
     style="fill:#000000;fill-opacity:1;stroke-width:0.25;stroke-linecap:round;stroke-miterlimit:4;stroke-dasharray:none"
     d="m 100.59397,103.02684 c -0.36888,-0.23973 -0.669389,-0.56448 -0.721122,-0.77929 -0.04877,-0.20257 -0.34424,-0.85453 -0.656574,-1.44884 -0.312333,-0.5943 -0.567877,-1.269876 -0.567877,-1.501272 0,-0.231401 -0.0663,-0.461694 -0.1473,-0.511767 -0.08103,-0.05007 -0.1473,-0.388737 -0.1473,-0.752581 0,-0.786254 -0.268734,-1.358858 -0.878594,-1.872015 -0.50328,-0.42348 -0.549627,-0.749 -0.219234,-1.539747 0.315601,-0.755368 0.635394,-1.070544 2.527606,-2.491195 0.907915,-0.681654 1.911365,-1.535448 2.229905,-1.897322 l 0.57915,-0.65795 0.30323,1.143524 c 0.58224,2.195705 0.65048,2.923795 0.54119,5.774337 -0.1975,5.151348 -0.60568,6.811658 -1.69691,6.902408 -0.36415,0.0303 -0.69785,-0.0769 -1.14614,-0.36829 l 0,0 z"
     id="path4705"
     inkscape:connector-curvature="0" />
  <path
     style="font-size:34.37500000000000000px;font-style:normal;font-weight:400;fill:none;stroke:#000000;stroke-width:0.83333391;stroke-linecap:round;stroke-linejoin:bevel;stroke-miterlimit:4;stroke-opacity:1;stroke-dasharray:none;font-family:MS Shell Dlg 2"
     d="m 96.599136,96.135279 c -0.614671,-3.717743 4.498174,-4.320938 5.769364,-7.323366 0.0503,-2.554546 2.11461,4.86155 1.61262,6.661012 -0.29258,2.888796 0.45281,11.638305 -4.483523,7.392055 -0.205493,-1.76271 -1.296444,-1.80587 -1.356008,-3.811463 -1.046746,0.04109 0.831305,-1.664618 -1.542481,-2.918238"
     id="path3287"
     inkscape:connector-curvature="0" />
  <path
     style="font-size:34.37500000000000000px;font-style:normal;font-weight:400;fill:none;stroke:#000000;stroke-width:5.00000344;stroke-linecap:round;stroke-linejoin:bevel;stroke-miterlimit:4;stroke-opacity:1;stroke-dasharray:none;font-family:MS Shell Dlg 2"
     d="m 63.333377,15.00001 c -0.893582,2.755918 -1.252721,6.779691 -3.179841,8.223647 -0.372799,2.613958 -1.559446,5.809935 -1.820163,8.443031"
     id="path4597"
     inkscape:connector-curvature="0"
     sodipodi:nodetypes="ccc" />
  <path
     style="font-size:34.37500000000000000px;font-style:normal;font-weight:400;fill:none;stroke:#000000;stroke-width:5.00000344;stroke-linecap:round;stroke-linejoin:bevel;stroke-miterlimit:4;stroke-opacity:1;stroke-dasharray:none;font-family:MS Shell Dlg 2"
     d="m 58.333373,31.666688 c 0.714346,4.021076 4.320116,5.949729 8.769466,4.452474 1.903263,-0.07325 4.563877,2.948641 5.180922,4.691502 -0.04288,3.915564 -1.012802,6.932626 -0.617045,10.856038"
     id="path4621"
     inkscape:connector-curvature="0"
     sodipodi:nodetypes="cccc" />
  <path
     style="font-size:34.37500000000000000px;font-style:normal;font-weight:400;fill:none;stroke:#000000;stroke-width:5.00000344;stroke-linecap:round;stroke-linejoin:bevel;stroke-miterlimit:4;stroke-opacity:1;stroke-dasharray:none;font-family:MS Shell Dlg 2"
     d="m 71.666716,51.666702 c 0.749771,2.517938 3.641426,3.284068 5.000003,1.666668"
     id="path4651"
     inkscape:connector-curvature="0"
     sodipodi:nodetypes="cc" />
  <path
     style="font-size:34.37500000000000000px;font-style:normal;font-weight:400;fill:none;stroke:#000000;stroke-width:5.00000344;stroke-linecap:round;stroke-linejoin:bevel;stroke-miterlimit:4;stroke-opacity:1;stroke-dasharray:none;font-family:MS Shell Dlg 2"
     d="m 58.333373,31.666688 c -2.66769,-0.704553 -3.333335,0.845159 -5.000003,1.666668 -3.333336,0 -5.000003,-4.068765 -6.666671,-6.666671 -1.516303,0.285557 -3.70763,0.515939 -5.000004,1.666668"
     id="path3299"
     inkscape:connector-curvature="0"
     sodipodi:nodetypes="cccc" />
  <path
     style="font-size:34.37500000000000000px;font-style:normal;font-weight:400;fill:none;stroke:#000000;stroke-width:5.00000344;stroke-linecap:round;stroke-linejoin:bevel;stroke-miterlimit:4;stroke-opacity:1;stroke-dasharray:none;font-family:MS Shell Dlg 2"
     d="M 41.666695,28.333353 C 39.342649,27.481251 40.589443,21.666682 38.33336,20.000014"
     id="path4591"
     inkscape:connector-curvature="0"
     sodipodi:nodetypes="cc" />
  <path
     style="font-size:34.37500000000000000px;font-style:normal;font-weight:400;fill:none;stroke:#000000;stroke-width:5.00000344;stroke-linecap:round;stroke-linejoin:bevel;stroke-miterlimit:4;stroke-opacity:1;stroke-dasharray:none;font-family:MS Shell Dlg 2"
     d="m 65.000045,85.000058 c 2.90878,-3.301747 1.666668,-6.666671 0,-8.333339 -1.294774,-1.123783 -2.531212,-3.561544 -3.333336,-5.000003"
     id="path4633"
     inkscape:connector-curvature="0"
     sodipodi:nodetypes="ccc" />
  <path
     style="font-size:34.37500000000000000px;font-style:normal;font-weight:400;fill:none;stroke:#000000;stroke-width:5.00000344;stroke-linecap:round;stroke-linejoin:bevel;stroke-miterlimit:4;stroke-opacity:1;stroke-dasharray:none;font-family:MS Shell Dlg 2"
     d="m 76.666719,53.33337 c 2.573711,-3.474629 3.927412,-7.315845 6.003222,-10.846597 -0.399726,-2.532 4.914985,-0.346062 3.756525,-4.43991 -0.994939,-4.825692 1.701252,-8.96066 3.042922,-13.262281 -4.040225,-1.735204 -9.284485,-0.933283 -12.206808,-4.566434 -3.842279,-0.127494 -8.278977,-1.884802 -8.9292,-5.218138 0,-1.666667 -3.333335,0.992258 -5.000003,0"
     id="path4595"
     inkscape:connector-curvature="0"
     sodipodi:nodetypes="ccccccc" />
  <path
     style="font-size:34.37500000000000000px;font-style:normal;font-weight:400;fill:none;stroke:#000000;stroke-width:5.00000344;stroke-linecap:round;stroke-linejoin:bevel;stroke-miterlimit:4;stroke-opacity:1;stroke-dasharray:none;font-family:MS Shell Dlg 2"
     d="m 61.666709,71.666716 c 3.720988,-0.464693 3.87777,-6.666671 0.404636,-7.154235 -0.404636,-2.18675 -2.500999,-8.954094 0.136919,-9.769136 1.862692,-0.340612 4.981117,0.256693 6.648694,-1.844035 0.777156,-0.641045 1.904484,-0.905957 2.809758,-1.232608"
     id="path4615"
     inkscape:connector-curvature="0"
     sodipodi:nodetypes="ccccc" />
  <path
     style="font-size:34.37500000000000000px;font-style:normal;font-weight:400;fill:none;stroke:#000000;stroke-width:5.00000344;stroke-linecap:round;stroke-linejoin:bevel;stroke-miterlimit:4;stroke-opacity:1;stroke-dasharray:none;font-family:MS Shell Dlg 2"
     d="m 38.33336,20.000014 c -3.849758,2.231691 -8.283968,0.496725 -11.191949,-2.519546 -4.172853,-4.328246 -2.127998,3.849748 -1.638242,6.800009 0.4544,2.737278 1.792437,5.654194 -2.609503,3.83967 -2.024644,-0.834579 -4.710979,1.875393 -6.62797,-1.589105 -2.932353,-1.531025 -6.054094,0.540158 -9.5916782,0.401678 -3.2829851,-0.128514 -5.00735,3.067301 -0.00735,3.067301 0.890164,3.03416 -5.0000034,3.333335 0,5.000003 4.3850992,-0.24258 7.4860932,4.607354 10.2547292,4.581829 3.078614,0.418175 3.53572,3.651722 3.078614,5.418178 0,5.000003 1.267023,7.467586 6.666671,8.333339 0.736194,0.118038 -1.666668,3.333336 0,6.666671 1.396184,1.752069 5.052991,5.134814 6.666674,6.666672"
     id="path4643"
     inkscape:connector-curvature="0"
     sodipodi:nodetypes="ccccccccccccc" />
  <path
     style="font-size:34.37500000000000000px;font-style:normal;font-weight:400;fill:none;stroke:#000000;stroke-width:5.00000344;stroke-linecap:round;stroke-linejoin:bevel;stroke-miterlimit:4;stroke-opacity:1;stroke-dasharray:none;font-family:MS Shell Dlg 2"
     d="m 33.333356,66.666713 c 3.97788,3.886077 4.285248,-2.953494 6.666672,-5.000004"
     id="path4641"
     inkscape:connector-curvature="0"
     sodipodi:nodetypes="cc" />
  <path
     style="font-size:34.37500000000000000px;font-style:normal;font-weight:400;fill:none;stroke:#000000;stroke-width:5.00000344;stroke-linecap:round;stroke-linejoin:bevel;stroke-miterlimit:4;stroke-opacity:1;stroke-dasharray:none;font-family:MS Shell Dlg 2"
     d="m 40.000028,61.666709 c 2.72592,-2.247451 -0.08042,-6.744909 2.805807,-8.240421 -0.567382,-3.953224 -3.45761,-6.497064 -6.523516,-7.598921 -2.332579,-5.347404 7.140384,-7.211306 4.845485,-12.694133 0.479216,-1.336409 1.565274,-3.483271 0.538891,-4.799881"
     id="path4639"
     inkscape:connector-curvature="0"
     sodipodi:nodetypes="ccccc" />
  <path
     style="font-size:34.37500000000000000px;font-style:normal;font-weight:400;fill:none;stroke:#000000;stroke-width:5.00000344;stroke-linecap:round;stroke-linejoin:bevel;stroke-miterlimit:4;stroke-opacity:1;stroke-dasharray:none;font-family:MS Shell Dlg 2"
     d="M 63.333377,15.00001 C 64.237359,10.331298 57.272879,9.4940738 55.877192,6.7888685 52.956947,7.3593894 52.394067,0.35812097 48.28975,4.53829 c -3.981761,2.4255853 0.216789,7.63089 -3.050528,9.788477 -2.066943,1.803114 -10.876947,1.714862 -6.905862,5.673247"
     id="path4609"
     inkscape:connector-curvature="0"
     sodipodi:nodetypes="ccccc" />
  <path
     style="font-size:34.37500000000000000px;font-style:normal;font-weight:400;fill:none;stroke:#000000;stroke-width:5.00000344;stroke-linecap:round;stroke-linejoin:bevel;stroke-miterlimit:4;stroke-opacity:1;stroke-dasharray:none;font-family:MS Shell Dlg 2"
     d="m 33.333356,66.666713 c -3.333335,-1.666668 -5.000003,-3.333336 -6.666671,-1.666668 0,8.333339 -0.73747,15.017111 -4.889938,20.318279 3.561444,0.43434 1.556602,3.01507 4.889938,3.01507 4.315329,2.586182 9.107808,5.672575 13.538382,3.07336 2.113576,0.571636 3.409284,0.540964 4.794964,1.926644 1.666668,1.666667 5.289294,3.520723 8.437433,3.333335 1.432631,-1.75465 4.877014,-0.627933 2.433117,-3.927862 -0.881383,-4.737913 5.069564,-7.584138 9.129464,-7.738813"
     id="path4635"
     inkscape:connector-curvature="0"
     sodipodi:nodetypes="cccccsccc" />
  <path
     style="font-size:34.37500000000000000px;font-style:normal;font-weight:400;fill:none;stroke:#000000;stroke-width:5.00000344;stroke-linecap:round;stroke-linejoin:bevel;stroke-miterlimit:4;stroke-opacity:1;stroke-dasharray:none;font-family:MS Shell Dlg 2"
     d="M 61.666709,71.666716 C 56.884661,69.612041 55.000038,70.000048 51.666702,70.000048 49.412489,68.33338 47.5389,66.63539 45.000031,66.666713 40.47511,65.340577 44.977961,61.107462 40.000028,61.666709"
     id="path4631"
     inkscape:connector-curvature="0"
     sodipodi:nodetypes="cccc" />
  <path
     style="font-size:34.37500000000000000px;font-style:normal;font-weight:400;fill:none;stroke:#000000;stroke-width:5.00000344;stroke-linecap:round;stroke-linejoin:bevel;stroke-miterlimit:4;stroke-opacity:1;stroke-dasharray:none;font-family:MS Shell Dlg 2"
     d="m 65.000045,85.000058 c 4.327518,0.720183 8.014004,1.265303 11.904532,3.462872 5.316339,0.77853 6.592484,-5.448399 10.670928,-7.618201 1.782183,-2.139845 2.712882,-5.566447 -0.98247,-3.963577 -5.533734,-1.145089 -0.590716,-6.936029 -4.423683,-8.709374 -2.489227,-2.802008 5.781296,-2.833219 1.469528,-6.515677 -2.428746,-2.852592 0.810625,-4.777316 -1.792294,-7.692421 -2.388637,-3.77354 -4.884757,3.406777 -5.179867,-0.63031"
     id="path4647"
     inkscape:connector-curvature="0"
     sodipodi:nodetypes="cccccccc" />
  <g
     id="g4787"
     style="fill:#f5ff00;fill-opacity:1">
    <path
       inkscape:connector-curvature="0"
       id="path4693"
       d="m 34.753954,67.092859 c -0.550767,-0.271534 -4.16913,-3.645976 -6.262973,-5.840767 -1.140768,-1.195768 -1.480972,-1.653765 -1.657283,-2.231115 -0.326717,-1.069864 -0.275517,-2.468585 0.150343,-4.107086 0.269011,-1.035021 0.331724,-1.507661 0.226201,-1.704828 -0.09957,-0.18605 -0.551762,-0.37195 -1.422045,-0.584621 -4.10341,-1.002737 -5.24117,-2.714805 -5.229488,-7.869178 0.0042,-1.854381 -0.04083,-2.303402 -0.300628,-2.997782 -0.565044,-1.510215 -1.514642,-2.287958 -3.230287,-2.645679 -1.300154,-0.27109 -1.567533,-0.405 -3.591409,-1.798661 C 10.540176,35.318781 9.2941827,34.73114 7.5688258,34.54585 6.6869335,34.451143 5.2513126,33.963756 5.2513126,33.759063 c 0,-0.05417 0.3023335,-0.39404 0.6718521,-0.755257 0.967349,-0.945614 1.2568325,-1.478238 1.2766659,-2.348949 0.00936,-0.41083 -0.059028,-0.823006 -0.1519678,-0.915946 -0.09294,-0.09294 -0.6044044,-0.221402 -1.1365871,-0.285471 -1.903477,-0.229157 -2.3670576,-0.835336 -1.1736771,-1.534704 0.5938284,-0.348006 0.9149709,-0.415421 2.476269,-0.519823 0.986674,-0.06598 2.6151371,-0.28889 3.6188074,-0.495363 1.912632,-0.393461 3.552042,-0.476073 4.45736,-0.224612 0.341949,0.09498 0.688366,0.348819 0.953825,0.69892 0.930747,1.227516 1.833757,1.577753 3.490287,1.353724 0.582336,-0.07876 1.359058,-0.183353 1.726049,-0.232443 0.498675,-0.0667 0.975126,0.008 1.885858,0.295703 1.566113,0.494734 2.083423,0.493136 2.679323,-0.0083 0.466526,-0.392555 0.467224,-0.395304 0.402022,-1.583626 -0.03592,-0.654713 -0.314892,-2.483068 -0.619926,-4.063011 -0.581622,-3.012545 -0.838756,-5.928814 -0.548358,-6.21921 0.20856,-0.208561 0.521764,0.0026 2.040156,1.375175 3.217927,2.90899 6.644605,3.840517 9.987564,2.715073 0.945021,-0.318154 1.040481,-0.326241 1.210581,-0.102584 0.3199,0.420612 0.613671,1.499547 1.008694,3.704519 0.445924,2.489102 0.750767,3.284917 1.507471,3.935349 0.515191,0.442837 0.549177,0.52344 0.527984,1.252169 -0.01267,0.435233 -0.218034,1.331319 -0.465504,2.031035 -0.428063,1.210362 -0.436403,1.282781 -0.2498,2.16905 0.36755,1.745624 -0.07647,2.643765 -2.628902,5.31758 -2.233671,2.339898 -2.842305,3.492246 -2.718702,5.147424 0.101334,1.356827 0.309001,1.629841 1.813452,2.383768 2.310028,1.157641 4.187589,3.350309 4.784223,5.58714 0.160233,0.600731 0.147467,0.669891 -0.1902,1.031201 -0.731597,0.782811 -0.871731,1.285561 -0.989411,3.549652 -0.144867,2.787339 -0.249367,3.136439 -1.292634,4.318227 -0.611887,0.693134 -1.158711,1.578281 -1.918265,3.105115 -1.044237,2.099092 -1.654811,2.897715 -2.209621,2.890165 -0.135567,-0.0018 -0.460587,-0.1089 -0.722257,-0.2379 l 0,0 z"
       style="fill:#f5ff00;fill-opacity:1;stroke-width:0.25000000000000000;stroke-linecap:round;stroke-miterlimit:4;stroke-dasharray:none" />
    <path
       inkscape:connector-curvature="0"
       id="path3377"
       d="m 96.599136,96.135279 c -0.614671,-3.717743 4.498174,-4.320938 5.769364,-7.323366 0.0503,-2.554546 2.11461,4.86155 1.61262,6.661012 -0.29258,2.888796 0.45281,11.638305 -4.483523,7.392055 -0.205493,-1.76271 -1.296444,-1.80587 -1.356008,-3.811463 -1.046746,0.04109 0.831305,-1.664618 -1.542481,-2.918238"
       style="font-size:34.37500000000000000px;font-style:normal;font-weight:400;fill:#f5ff00;stroke:#000000;stroke-width:5.00000344000000040;stroke-linecap:round;stroke-linejoin:bevel;stroke-miterlimit:4;stroke-opacity:1;stroke-dasharray:none;font-family:MS Shell Dlg 2;fill-opacity:1" />
  </g>
</svg>
